<svg width="35" height="35" viewBox="-1 -1 35 35" xmlns="http://www.w3.org/2000/svg"><title>Fill 49</title><path d="M25.938 28.646c-.896-.707-2.128-1.146-3.68-1.146h-1.265l-1.528-1.972c1.732-1.426 2.953-3.904 3.041-6.123 1.623-1.732.539-6.166.253-7.22a3.958 3.958 0 0 0-.506-3.457c-1.353-1.953-4.18-2.278-6.952-.617-4.356.043-5.027 1.908-5.043 3.95-.237.623-1.254 3.75.22 7.219.044 2.265 1.292 4.83 3.08 6.277l-1.48 1.943h-1.27c-1.563 0-2.811.455-3.724 1.16-3.63-2.818-5.973-7.22-5.973-12.16 0-8.486 6.903-15.39 15.389-15.39S31.889 8.013 31.889 16.5c0 4.933-2.332 9.327-5.951 12.146zM21.642 12.32c.578 1.992 1.073 5.493-.043 6.417a.554.554 0 0 0-.198.427c0 2.84-2.31 6.443-4.906 6.443-2.597 0-4.906-3.603-4.906-6.443a.52.52 0 0 0-.05-.223c-1.49-3.391-.231-6.53-.214-6.562a.69.69 0 0 0 .038-.212c0-1.67.303-2.946 4.098-2.946a.55.55 0 0 0 .291-.084c1.089-.676 2.123-1.018 3.075-1.018 1.067 0 1.957.441 2.513 1.241.528.765.643 1.741.319 2.611a.543.543 0 0 0-.017.35zM16.5 31.891c-3.13 0-6.039-.94-8.47-2.548.693-.448 1.623-.743 2.777-.743h1.551c.182 0 .347.02.451-.124l1.722-2.277c.622.323 1.281.516 1.964.516.698 0 1.375-.203 2.007-.541l1.765 2.322c.105.14.27.104.446.104h1.545c1.139 0 2.052.285 2.734.729A15.307 15.307 0 0 1 16.5 31.89zM16.5 0C7.403 0 0 7.402 0 16.5 0 25.598 7.403 33 16.5 33a16.4 16.4 0 0 0 9.515-3.033.807.807 0 0 0 .242-.17C30.344 26.79 33 21.95 33 16.5 33 7.402 25.597 0 16.5 0z" fill="#0A0B09" fill-rule="evenodd"/></svg>